<svg width="18" height="20" viewBox="0 0 18 20" fill="none" xmlns="http://www.w3.org/2000/svg">
<path d="M17.947 6.305C17.9369 5.54763 17.7951 4.79778 17.528 4.089C17.2963 3.49115 16.9425 2.9482 16.4892 2.49483C16.0358 2.04147 15.4928 1.68765 14.895 1.456C14.1953 1.19336 13.4562 1.05134 12.709 1.036C11.747 0.993003 11.442 0.981003 9 0.981003C6.558 0.981003 6.245 0.981003 5.29 1.036C4.54316 1.05146 3.80435 1.19347 3.105 1.456C2.50706 1.68749 1.96402 2.04125 1.51063 2.49464C1.05724 2.94802 0.703489 3.49106 0.472 4.089C0.208831 4.78814 0.0671229 5.52711 0.0529997 6.274C0.00999973 7.237 -0.00300026 7.542 -0.00300026 9.984C-0.00300026 12.426 -0.00300027 12.738 0.0529997 13.694C0.0679997 14.442 0.209 15.18 0.472 15.881C0.703877 16.4788 1.0579 17.0216 1.51144 17.4748C1.96498 17.928 2.50806 18.2816 3.106 18.513C3.80343 18.7862 4.54237 18.9384 5.291 18.963C6.254 19.006 6.559 19.019 9.001 19.019C11.443 19.019 11.756 19.019 12.711 18.963C13.4582 18.9483 14.1974 18.8066 14.897 18.544C15.4947 18.3121 16.0375 17.9582 16.4908 17.5048C16.9442 17.0515 17.2981 16.5087 17.53 15.911C17.793 15.211 17.934 14.473 17.949 13.724C17.992 12.762 18.005 12.457 18.005 10.014C18.003 7.572 18.003 7.262 17.947 6.305ZM8.994 14.602C6.44 14.602 4.371 12.533 4.371 9.979C4.371 7.425 6.44 5.356 8.994 5.356C10.2201 5.356 11.396 5.84307 12.263 6.71005C13.1299 7.57703 13.617 8.75291 13.617 9.979C13.617 11.2051 13.1299 12.381 12.263 13.248C11.396 14.1149 10.2201 14.602 8.994 14.602ZM13.801 6.263C13.6594 6.26313 13.5192 6.23534 13.3883 6.18121C13.2575 6.12709 13.1386 6.04769 13.0384 5.94756C12.9383 5.84743 12.8589 5.72854 12.8048 5.59769C12.7507 5.46684 12.7229 5.3266 12.723 5.185C12.723 5.0435 12.7509 4.90339 12.805 4.77266C12.8592 4.64193 12.9385 4.52315 13.0386 4.4231C13.1386 4.32304 13.2574 4.24367 13.3882 4.18952C13.5189 4.13537 13.659 4.1075 13.8005 4.1075C13.942 4.1075 14.0821 4.13537 14.2128 4.18952C14.3436 4.24367 14.4624 4.32304 14.5624 4.4231C14.6625 4.52315 14.7418 4.64193 14.796 4.77266C14.8501 4.90339 14.878 5.0435 14.878 5.185C14.878 5.781 14.396 6.263 13.801 6.263Z" fill="white"/>
</svg>
