<svg width="20" height="20" viewBox="0 0 20 20" fill="none" xmlns="http://www.w3.org/2000/svg">
<path d="M7.75832 5.59173C7.68107 5.66882 7.61978 5.76039 7.57796 5.86121C7.53614 5.96202 7.51462 6.07009 7.51462 6.17923C7.51462 6.28837 7.53614 6.39643 7.57796 6.49725C7.61978 6.59806 7.68107 6.68963 7.75832 6.76673L10.9917 10.0001L7.75832 13.2334C7.60251 13.3892 7.51497 13.6005 7.51497 13.8209C7.51497 14.0412 7.60251 14.2526 7.75832 14.4084C7.91414 14.5642 8.12547 14.6517 8.34582 14.6517C8.56618 14.6517 8.77751 14.5642 8.93332 14.4084L12.7583 10.5834C12.8356 10.5063 12.8969 10.4147 12.9387 10.3139C12.9805 10.2131 13.002 10.105 13.002 9.99589C13.002 9.88675 12.9805 9.77868 12.9387 9.67787C12.8969 9.57706 12.8356 9.48549 12.7583 9.40839L8.93332 5.58339C8.61665 5.26673 8.08332 5.26673 7.75832 5.59173Z" fill="#222222"/>
</svg>
