<svg width="20" height="21" viewBox="0 0 20 21" fill="none" xmlns="http://www.w3.org/2000/svg">
<path d="M15 14.9182V13.349L19.1667 15.849L15 18.349V16.6074C13.7262 16.425 12.5207 15.9179 11.4996 15.1349C10.4784 14.3519 9.67588 13.3194 9.16916 12.1365L9.16666 12.1324L9.16416 12.1374C8.58589 13.4863 7.62455 14.636 6.39923 15.4439C5.17392 16.2518 3.7385 16.6824 2.27082 16.6824H1.66666V15.0157H2.27082C3.41247 15.0157 4.52902 14.6806 5.48209 14.0521C6.43515 13.4236 7.18284 12.5292 7.63249 11.4799L8.25999 10.0157L7.63249 8.55154C7.18284 7.50217 6.43515 6.6078 5.48209 5.97929C4.52902 5.35077 3.41247 5.01574 2.27082 5.01571H1.66666V3.34904H2.27082C3.73859 3.34911 5.17408 3.77985 6.3994 4.5879C7.62473 5.39594 8.58602 6.54576 9.16416 7.89487L9.16666 7.89904L9.16916 7.89404C9.676 6.71137 10.4786 5.67899 11.4997 4.89616C12.5209 4.11333 13.7263 3.60637 15 3.42404V1.68237L19.1667 4.18237L15 6.68237V5.11321C14.0557 5.28816 13.1693 5.69353 12.4193 6.29333C11.6693 6.89314 11.079 7.66883 10.7008 8.55154L10.0733 10.0157L10.7008 11.4799C11.079 12.3626 11.6693 13.1383 12.4193 13.7381C13.1693 14.3379 14.0557 14.7433 15 14.9182Z" fill="#A1B1C2"/>
</svg>
