<svg width="20" height="20" viewBox="0 0 20 20" fill="none" xmlns="http://www.w3.org/2000/svg">
<path d="M9.75 17.4063C9.64868 17.4073 9.54887 17.3817 9.46055 17.332C9.14141 17.1539 1.73438 12.9457 1.73438 7.60938C1.73438 6.67474 2.02845 5.7638 2.57494 5.00559C3.12143 4.24737 3.89263 3.68033 4.7793 3.38477C5.66597 3.08921 6.62316 3.08013 7.51528 3.35881C8.4074 3.63748 9.18922 4.18979 9.75 4.9375C10.3108 4.18979 11.0926 3.63748 11.9847 3.35881C12.8768 3.08013 13.834 3.08921 14.7207 3.38477C15.6074 3.68033 16.3786 4.24737 16.9251 5.00559C17.4716 5.7638 17.7656 6.67474 17.7656 7.60938C17.7656 9.88047 16.452 12.2109 13.8617 14.5414C12.6855 15.5988 11.4049 16.5338 10.0395 17.332C9.95113 17.3817 9.85132 17.4073 9.75 17.4063ZM6.1875 4.34375C5.3214 4.34375 4.49078 4.68781 3.87835 5.30023C3.26593 5.91265 2.92188 6.74328 2.92188 7.60938C2.92188 11.7063 8.41406 15.3059 9.75 16.1223C11.0859 15.3059 16.5781 11.7063 16.5781 7.60938C16.5788 6.85444 16.3179 6.12259 15.8398 5.53833C15.3617 4.95407 14.696 4.5535 13.9559 4.40477C13.2157 4.25605 12.4469 4.36835 11.7802 4.72257C11.1136 5.07679 10.5902 5.65106 10.2992 6.34766C10.2545 6.45656 10.1784 6.5497 10.0806 6.61525C9.9828 6.6808 9.86773 6.7158 9.75 6.7158C9.63227 6.7158 9.5172 6.6808 9.41941 6.61525C9.32161 6.5497 9.24552 6.45656 9.20078 6.34766C8.95365 5.75262 8.53527 5.24444 7.99876 4.88765C7.46225 4.53086 6.83181 4.34154 6.1875 4.34375Z" fill="#A1B1C2"/>
</svg>
